<svg xmlns="http://www.w3.org/2000/svg" xmlns:xlink="http://www.w3.org/1999/xlink" width="500" zoomAndPan="magnify" viewBox="0 0 375 374.999991" height="500" preserveAspectRatio="xMidYMid meet" version="1.0"><defs><g/><clipPath id="2e1d3532d8"><path d="M 56.316406 83.371094 L 207.066406 83.371094 L 207.066406 271.621094 L 56.316406 271.621094 Z M 56.316406 83.371094 " clip-rule="nonzero"/></clipPath></defs><g clip-path="url(#2e1d3532d8)"><path fill="#FFFFFF" d="M 150.441406 83.371094 C 98.4375 83.371094 56.316406 125.492188 56.316406 177.496094 C 56.316406 229.5 98.4375 271.621094 150.441406 271.621094 C 202.445312 271.621094 244.566406 229.5 244.566406 177.496094 C 244.566406 125.492188 202.445312 83.371094 150.441406 83.371094 Z M 150.441406 252.792969 C 108.835938 252.792969 75.140625 219.097656 75.140625 177.496094 C 75.140625 135.890625 108.835938 102.195312 150.441406 102.195312 C 192.042969 102.195312 225.742188 135.890625 225.742188 177.496094 C 225.742188 219.097656 192.042969 252.792969 150.441406 252.792969 Z M 150.441406 252.792969 " fill-opacity="1" fill-rule="nonzero"/></g><g fill="#FFFFFF" fill-opacity="1"><g transform="translate(130.461799, 205.9695)"><g><path d="M 46.390625 3.546875 L 5 -22.46875 L 46.390625 -48.40625 L 47.03125 -47.828125 L 22.953125 -22.390625 L 47.03125 3.0625 Z M 46.390625 3.546875 "/></g></g></g><g fill="#FFFFFF" fill-opacity="1"><g transform="translate(186.020099, 205.9695)"><g><path d="M 52.5 -16.59375 C 52.175781 -11.96875 50.890625 -8.328125 48.640625 -5.671875 C 46.390625 -3.015625 43.554688 -1.132812 40.140625 -0.03125 C 36.734375 1.0625 33.070312 1.609375 29.15625 1.609375 C 26.363281 1.609375 23.34375 0.882812 20.09375 -0.5625 C 16.84375 -2.007812 13.6875 -4.179688 10.625 -7.078125 C 7.570312 -9.984375 4.890625 -13.632812 2.578125 -18.03125 L 3.140625 -18.609375 C 5.285156 -16.941406 7.578125 -15.4375 10.015625 -14.09375 C 12.460938 -12.75 14.894531 -11.609375 17.3125 -10.671875 C 19.726562 -9.734375 21.96875 -9.019531 24.03125 -8.53125 C 26.101562 -8.050781 27.785156 -7.8125 29.078125 -7.8125 C 31.597656 -7.8125 33.726562 -8.398438 35.46875 -9.578125 C 37.21875 -10.765625 38.226562 -12.726562 38.5 -15.46875 L 38.5 -15.703125 C 38.5 -16.878906 37.71875 -18.125 36.15625 -19.4375 C 34.601562 -20.757812 32.578125 -22.171875 30.078125 -23.671875 C 27.578125 -25.179688 24.941406 -26.765625 22.171875 -28.421875 C 19.410156 -30.085938 16.796875 -31.816406 14.328125 -33.609375 C 11.859375 -35.410156 9.832031 -37.28125 8.25 -39.21875 C 6.664062 -41.15625 5.875 -43.171875 5.875 -45.265625 C 5.875 -45.523438 5.875 -45.75 5.875 -45.9375 C 5.875 -46.125 5.898438 -46.328125 5.953125 -46.546875 C 6.597656 -50.140625 8.035156 -53.28125 10.265625 -55.96875 C 12.492188 -58.65625 15.175781 -60.75 18.3125 -62.25 C 21.457031 -63.75 24.722656 -64.5 28.109375 -64.5 C 31.546875 -64.5 35.234375 -63.972656 39.171875 -62.921875 C 43.117188 -61.878906 47.160156 -60.394531 51.296875 -58.46875 L 46.78125 -45.34375 C 42.59375 -49.414062 38.992188 -52.414062 35.984375 -54.34375 C 32.984375 -56.28125 30.144531 -57.25 27.46875 -57.25 C 24.5625 -57.25 22.34375 -56.535156 20.8125 -55.109375 C 19.28125 -53.691406 18.410156 -51.320312 18.203125 -48 L 18.203125 -47.75 C 18.203125 -46.519531 18.816406 -45.285156 20.046875 -44.046875 C 21.285156 -42.816406 22.925781 -41.566406 24.96875 -40.296875 C 27.007812 -39.035156 29.25 -37.75 31.6875 -36.4375 C 34.132812 -35.125 36.578125 -33.753906 39.015625 -32.328125 C 41.460938 -30.910156 43.703125 -29.410156 45.734375 -27.828125 C 47.773438 -26.242188 49.410156 -24.578125 50.640625 -22.828125 C 51.878906 -21.085938 52.5 -19.222656 52.5 -17.234375 Z M 52.5 -16.59375 "/></g></g></g><g fill="#FFFFFF" fill-opacity="1"><g transform="translate(243.671897, 205.9695)"><g><path d="M 0.890625 4.671875 L 21.90625 -66.4375 L 33.09375 -63.859375 L 1.9375 4.671875 Z M 0.890625 4.671875 "/></g></g></g><g fill="#FFFFFF" fill-opacity="1"><g transform="translate(275.879614, 205.9695)"><g><path d="M 9.1875 3.546875 L 8.53125 2.984375 L 32.609375 -22.390625 L 8.53125 -47.828125 L 9.1875 -48.40625 L 50.578125 -22.46875 Z M 9.1875 3.546875 "/></g></g></g></svg>